<svg width="4044" height="2426" viewBox="0 0 4044 2426" fill="none" xmlns="http://www.w3.org/2000/svg">
<path d="M0 233.402V466.735H600.4C1008.93 466.735 1205.6 467.135 1216 468.202C1245.73 470.869 1284.4 480.335 1310.53 491.402C1328.53 499.002 1347.73 509.802 1364.53 521.802C1380.67 533.135 1410 561.935 1421.2 577.135C1446.67 611.935 1465.07 658.335 1476.4 716.069C1479.33 731.402 1479.33 731.935 1479.47 876.335C1479.6 993.802 1480 1021.8 1481.33 1023.4C1483.87 1026.47 1523.47 1049.8 1610 1099.4C1701.47 1151.8 1775.47 1202.6 1834.67 1253.94C1853.2 1269.94 1892.53 1309.4 1906.8 1326.07C1924.27 1346.6 1944.53 1373.67 1959.2 1396.34C1963.47 1402.87 1967.33 1408.07 1968.13 1408.07C1969.87 1408.07 1969.73 642.602 1968 612.735C1963.33 533.802 1948 454.735 1926.13 396.335C1905.33 340.735 1872.93 280.469 1842.93 241.402C1820.93 212.735 1775.73 166.735 1748 144.735C1677.87 89.0021 1601.33 51.2688 1508.67 26.2021C1473.2 16.7354 1449.33 11.8021 1417.73 7.40211C1363.2 -0.331226 1400.13 0.0687742 671.067 0.0687742H0V233.402Z" fill="#0059FF"/>
<path d="M2074.27 0.868912C2073.87 1.26891 2073.87 308.602 2074.13 683.802C2074.53 1059.14 2074.8 1375.54 2074.8 1387C2074.67 1400.6 2075.2 1408.07 2076 1408.07C2076.8 1408.07 2079.07 1405.27 2081.07 1401.94C2116.13 1342.47 2174.4 1279.14 2247.33 1221.14C2295.87 1182.6 2366.27 1136.74 2442 1094.47C2506.53 1058.34 2545.73 1035.27 2562 1023.8C2562.93 1023.14 2563.6 929.536 2564 745.136L2564.67 467.402H2861.33C3175.73 467.402 3167.2 467.269 3199.33 473.536C3226.93 479.002 3258 488.069 3281.07 497.269C3293.47 502.202 3322.27 517.136 3334.93 525.136C3375.33 550.469 3406.13 582.069 3430.67 622.736C3451.87 657.936 3469.6 707.402 3477.2 752.736C3492.53 845.002 3483.73 929.136 3450.67 1004.07C3435.6 1038.47 3413.73 1069.27 3383.47 1099.4C3352.27 1130.47 3334.13 1143.4 3297.6 1161C3258.53 1179.94 3205.6 1194.2 3152.67 1200.07C3145.2 1200.87 3048.13 1201.4 2894 1201.54C2638.67 1201.8 2605.07 1202.34 2574.67 1206.07C2523.47 1212.34 2457.47 1229.8 2415.2 1248.2C2320.8 1289.14 2233.47 1354.47 2185.47 1420.07C2164 1449.54 2135.07 1502.6 2120.8 1539C2101.73 1587.67 2090 1631.94 2082.13 1685.4C2073.6 1743.54 2074.13 1714.2 2073.87 2085.4C2073.73 2337.67 2074 2423.67 2075.2 2424.34C2077.07 2425.54 2520.67 2425.67 2546 2424.47L2564.4 2423.67L2563.33 2233.8C2562.8 2129.4 2562.13 2042.34 2561.87 2040.34C2561.6 2038.34 2561.33 1955.54 2561.2 1856.34C2561.2 1716.87 2561.47 1675.54 2562.67 1674.07C2564.13 1672.34 2604.8 1672.07 2878.53 1672.07C3073.6 1672.07 3202.27 1671.54 3218 1670.74C3349.6 1663.67 3481.33 1630.34 3594 1575.54C3707.07 1520.47 3800.53 1445.67 3874.67 1350.74C3958.27 1243.8 4014.53 1107.54 4033.87 965.402C4051.33 836.202 4044.67 715.136 4013.2 588.736C3998.13 528.602 3982.8 486.469 3954.8 428.736C3934 385.936 3915.73 355.936 3887.33 318.202C3865.47 289.136 3848.27 269.536 3818.8 240.069C3794.4 215.669 3784.93 207.136 3758 185.269C3709.33 145.669 3637.6 102.736 3578 77.5356C3558 69.0022 3521.87 55.8022 3494.67 47.0022C3416.4 21.6689 3336 7.53558 3236 1.40225C3212.27 -0.0644209 2075.73 -0.597754 2074.27 0.868912Z" fill="#0059FF"/>
<path d="M527.066 949.669C527.466 950.602 535.733 970.602 545.333 994.069C554.933 1017.54 570.533 1055.27 579.999 1078.07C589.466 1100.74 600.933 1128.34 605.466 1139.4C609.999 1150.34 616.799 1166.87 620.666 1176.07C624.533 1185.27 630.266 1199 633.333 1206.74C636.399 1214.47 641.733 1227.27 645.333 1235.4C655.733 1259.54 666.533 1285 673.999 1303.4C677.866 1312.87 683.866 1327.27 687.333 1335.4C718.399 1408.74 721.866 1416.34 724.533 1418.07C726.799 1419.54 763.199 1419.94 932.666 1420.47C1131.6 1421.14 1138.8 1421.27 1161.73 1423.94C1219.2 1430.87 1261.6 1443.67 1303.33 1467C1371.2 1504.87 1420.27 1556.47 1446.53 1617.8C1464 1658.6 1472.67 1691.14 1478.67 1738.74C1480.27 1751.8 1480.53 2099.27 1479.2 2299.54L1478.27 2423.67L1491.47 2424.47C1508.4 2425.67 1953.07 2425.67 1962.4 2424.6L1969.33 2423.67V2101.54C1969.33 1897 1968.8 1771.4 1968 1757.4C1960.53 1637.54 1930.53 1532.6 1881.2 1453.67C1870.27 1436.2 1849.2 1407.94 1834.8 1391.54C1822.4 1377.4 1794 1350.87 1774.53 1335.14C1759.33 1323.14 1698.8 1282.74 1672.8 1267.54C1662.4 1261.4 1624.93 1239 1589.33 1217.4C1553.73 1195.94 1504.93 1166.6 1480.67 1152.07C1456.53 1137.67 1432.53 1123.27 1427.33 1120.07C1406.27 1107.14 1334.53 1063.67 1304 1045.4C1286 1034.74 1246.8 1010.87 1216.67 992.602C1186.67 974.202 1157.73 956.736 1152.4 953.669L1142.93 948.069H834.666C588.533 948.069 526.533 948.469 527.066 949.669Z" fill="#0059FF"/>
</svg>
